<svg width="17" height="19" viewBox="0 0 17 19" fill="none" xmlns="http://www.w3.org/2000/svg">
<path d="M14.3333 8.5H2.66667C1.74619 8.5 1 9.24619 1 10.1667V16C1 16.9205 1.74619 17.6667 2.66667 17.6667H14.3333C15.2538 17.6667 16 16.9205 16 16V10.1667C16 9.24619 15.2538 8.5 14.3333 8.5Z" stroke="#A3AEBF" stroke-width="1.5" stroke-linecap="round" stroke-linejoin="round"/>
<path d="M4.33325 8.5V5.16667C4.33325 4.0616 4.77224 3.00179 5.55364 2.22039C6.33504 1.43899 7.39485 1 8.49992 1C9.60499 1 10.6648 1.43899 11.4462 2.22039C12.2276 3.00179 12.6666 4.0616 12.6666 5.16667V8.5" stroke="#A3AEBF" stroke-width="1.5" stroke-linecap="round" stroke-linejoin="round"/>
</svg>
