<svg width="132" height="38" viewBox="0 0 132 38" fill="none" xmlns="http://www.w3.org/2000/svg">
<path d="M10.2048 20.4082C15.8407 20.4082 20.4095 15.8396 20.4095 10.2041C20.4095 4.56852 15.8407 0 10.2048 0C4.56883 0 0 4.56852 0 10.2041C0 15.8396 4.56883 20.4082 10.2048 20.4082Z" fill="#F5322C"/>
<path d="M36.1962 4.56055C36.1962 12.2111 33.3902 19.2157 28.747 24.5953H36.1962V35.304H5.45068V24.5953C16.5033 24.5953 25.4868 15.6024 25.4868 4.56055H36.1962Z" fill="#F5322C"/>
<path d="M53.8501 8.18411C52.336 8.18411 51.1651 8.36579 50.2365 8.67867V16.8238H47.3396V5.55991C48.3893 5.55991 49.2574 5.79206 49.9842 6.22606C51.1853 5.69113 52.4067 5.45898 53.8501 5.45898V8.18411Z" fill="#04041C"/>
<path d="M66.7904 12.2718H59.1192C59.3211 13.9069 60.0882 14.7547 62.3189 14.7547C63.3989 14.7547 64.9231 14.5024 66.1041 14.139V16.2687C64.9836 16.7228 63.2071 17.0357 61.6628 17.0357C58.3319 17.0357 56.1213 15.0272 56.1213 11.3331C56.1213 7.82076 58.2915 5.45898 61.5215 5.45898C64.7212 5.45898 66.9015 7.70974 66.9015 11.0808C66.8914 11.4744 66.8308 11.9488 66.7904 12.2718ZM59.099 10.4147H63.9339C63.7522 8.71904 62.9447 7.64918 61.5114 7.64918C60.0781 7.64918 59.2706 8.73923 59.099 10.4147Z" fill="#04041C"/>
<path d="M79.5286 16.927C78.6202 16.927 77.7118 16.6948 77.0052 16.3315C75.9756 16.7857 74.7543 17.038 73.5733 17.038C71.0095 17.038 69.4551 15.7562 69.4551 13.566C69.4551 11.3758 71.1306 10.094 74.0074 10.094C74.8149 10.094 75.7233 10.2353 76.6317 10.528V9.86184C76.6317 8.51946 75.7233 7.7322 74.1285 7.7322C72.9879 7.7322 71.5647 7.93407 70.3635 8.26714V6.15769C71.5041 5.72368 73.109 5.45117 74.724 5.45117C77.742 5.45117 79.5185 6.98532 79.5185 9.58933V16.927H79.5286ZM74.7341 14.9689C75.3498 14.9689 76.016 14.8478 76.6317 14.5955V12.3649C75.9655 12.0722 75.3094 11.9713 74.7341 11.9713C73.3311 11.9713 72.463 12.5264 72.463 13.5054C72.463 14.4239 73.3311 14.9689 74.7341 14.9689Z" fill="#04041C"/>
<path d="M83.8286 1.32177L86.7255 0.494141V16.8247H83.8286V1.32177Z" fill="#04041C"/>
<path d="M58.8566 27.6245C58.8566 31.1167 56.6258 33.4583 53.2747 33.4583C52.1947 33.4583 51.1248 33.1656 50.2365 32.6508V37.7983H47.3396V21.9724C48.349 21.9724 49.217 22.1742 49.9034 22.588C50.8724 22.1338 52.0736 21.8613 53.2545 21.8613C56.5956 21.8714 58.8566 24.1726 58.8566 27.6245ZM55.8587 27.6447C55.8587 25.5554 54.5566 24.1525 52.5076 24.1525C51.801 24.1525 50.9935 24.3543 50.2365 24.6874V30.4303C50.9834 30.9047 51.8111 31.1772 52.5682 31.1772C54.5566 31.1772 55.8587 29.7743 55.8587 27.6447Z" fill="#04041C"/>
<path d="M67.9311 24.6063C66.4171 24.6063 65.2462 24.788 64.3176 25.1009V33.246H61.4207V21.972C62.4704 21.972 63.3385 22.2042 64.0652 22.6382C65.2664 22.1032 66.4877 21.8711 67.9311 21.8711V24.6063Z" fill="#04041C"/>
<path d="M69.3542 27.6645C69.3542 24.1925 71.7566 21.8711 75.3499 21.8711C78.9029 21.8711 81.3254 24.1824 81.3254 27.6645C81.3254 31.1466 78.9029 33.4579 75.3499 33.4579C71.7566 33.4478 69.3542 31.1365 69.3542 27.6645ZM78.3276 27.6645C78.3276 25.5551 77.1062 24.1521 75.3297 24.1521C73.5331 24.1521 72.3319 25.5551 72.3319 27.6645C72.3319 29.774 73.5331 31.1769 75.3297 31.1769C77.1062 31.1769 78.3276 29.774 78.3276 27.6645Z" fill="#04041C"/>
<path d="M82.4863 35.7298C83.314 35.7298 83.8691 35.1949 83.8691 34.3672V22.084H86.766V34.8214C86.766 36.7189 85.4438 38.0007 83.4351 38.0007C82.8799 38.0007 82.2743 37.92 81.699 37.7484V35.6188C81.9715 35.6793 82.2138 35.7298 82.4863 35.7298Z" fill="#04041C"/>
<path d="M100.019 28.6937H92.3477C92.5496 30.3287 93.3167 31.1766 95.5474 31.1766C96.6274 31.1766 98.1516 30.9242 99.3326 30.5609V32.6905C98.2122 33.1447 96.4357 33.4576 94.8913 33.4576C91.5604 33.4576 89.3499 31.4491 89.3499 27.755C89.3499 24.2426 91.52 21.8809 94.75 21.8809C97.9497 21.8809 100.13 24.1316 100.13 27.5027C100.12 27.8862 100.059 28.3606 100.019 28.6937ZM92.3275 26.8366H97.1624C96.9807 25.1409 96.1732 24.0711 94.7399 24.0711C93.2965 24.061 92.489 25.1611 92.3275 26.8366Z" fill="#04041C"/>
<path d="M108.831 24.1521C106.54 24.1521 105.005 25.5551 105.005 27.6645C105.005 29.774 106.56 31.1769 108.892 31.1769C109.659 31.1769 110.769 30.975 111.687 30.6622V32.7918C110.779 33.1854 109.305 33.4579 107.963 33.4579C104.41 33.4579 102.008 31.1466 102.008 27.6645C102.008 24.1824 104.41 21.8711 107.963 21.8711C109.083 21.8711 110.507 22.1436 111.476 22.5372V24.6669C110.729 24.354 109.659 24.1521 108.831 24.1521Z" fill="#04041C"/>
<path d="M121.236 31.0756V33.2052C120.368 33.3667 119.5 33.4575 118.753 33.4575C116.462 33.4575 114.927 31.9739 114.927 29.713V24.1517H113.312V22.0827H114.927V19.6401L117.824 18.8125V22.0827H121.135V24.1517H117.824V29.2588C117.824 30.4195 118.571 31.1765 119.681 31.1765C120.196 31.1765 120.711 31.1361 121.236 31.0756Z" fill="#04041C"/>
<path d="M126.727 28.9258L125.94 28.7441C124.062 28.3505 122.861 27.6642 122.861 25.585C122.861 23.2737 124.456 21.8809 127.121 21.8809C128.362 21.8809 129.705 22.1534 130.633 22.5672V24.6161C129.533 24.2224 128.403 24.0811 127.716 24.0811C126.374 24.0811 125.819 24.4748 125.819 25.1106C125.819 25.7061 126.434 25.9988 127.393 26.2108L128.14 26.3925C129.977 26.8063 131.32 27.6743 131.32 29.8443C131.32 32.1152 129.725 33.4576 127.1 33.4576C125.919 33.4576 124.304 33.1851 123.275 32.63V30.5811C124.395 31.0756 125.607 31.2674 126.545 31.2674C127.787 31.2674 128.342 30.894 128.342 30.1673C128.342 29.5011 127.726 29.1479 126.727 28.9258Z" fill="#04041C"/>
</svg>
